<svg xmlns="http://www.w3.org/2000/svg" viewBox="0 0 800 800">
  
  <!-- Define styles and effects -->
  <defs>
    <!-- Gradient for background -->
    <linearGradient id="bgGradient" x1="0%" y1="0%" x2="100%" y2="100%">
      <stop offset="0%" style="stop-color:#0a0a0a;stop-opacity:1" />
      <stop offset="100%" style="stop-color:#1a1a1a;stop-opacity:1" />
    </linearGradient>
    
    <!-- Gradients for 3D effects -->
    <linearGradient id="textGradient" x1="0%" y1="0%" x2="0%" y2="100%">
      <stop offset="0%" style="stop-color:#00ff00;stop-opacity:1" />
      <stop offset="50%" style="stop-color:#00dd00;stop-opacity:1" />
      <stop offset="100%" style="stop-color:#00aa00;stop-opacity:1" />
    </linearGradient>
    
    <!-- Glow effect -->
    <filter id="glow" width="200%" height="200%">
      <feGaussianBlur in="SourceAlpha" stdDeviation="3" result="coloredBlur"/>
      <feMerge>
        <feMergeNode in="coloredBlur"/>
        <feMergeNode in="SourceGraphic"/>
      </feMerge>
    </filter>
    
    <!-- 3D depth effect -->
    <filter id="depth3d" x="-50%" y="-50%" width="200%" height="200%">
      <feGaussianBlur in="SourceAlpha" stdDeviation="2" result="blur1"/>
      <feOffset in="blur1" dx="2" dy="2" result="offsetBlur"/>
      <feFlood flood-color="#000000" flood-opacity="0.5"/>
      <feComposite in2="offsetBlur" operator="in"/>
      <feMerge>
        <feMergeNode/>
        <feMergeNode in="SourceGraphic"/>
      </feMerge>
    </filter>
    
    <!-- Subtle bevel effect -->
    <filter id="bevel" x="-10%" y="-10%" width="120%" height="120%">
      <feGaussianBlur in="SourceAlpha" stdDeviation="3" result="blur"/>
      <feSpecularLighting in="blur" surfaceScale="5" specularConstant="0.75" specularExponent="20" lighting-color="#00ff00" result="specOut">
        <fePointLight x="-5000" y="-10000" z="20000"/>
      </feSpecularLighting>
      <feComposite in="specOut" in2="SourceAlpha" operator="in" result="specOut2"/>
      <feComposite in="SourceGraphic" in2="specOut2" operator="arithmetic" k1="0" k2="1" k3="1" k4="0"/>
    </filter>
    
    <!-- Define 3D cube for numbers -->
    <g id="cube" filter="url(#depth3d)">
      <rect x="0" y="0" width="12" height="12" fill="url(#textGradient)" rx="1" ry="1"/>
      <path d="M0,0 L2,-2 L14,-2 L12,0 Z" fill="#00ff00" opacity="0.6"/>
      <path d="M12,0 L14,-2 L14,10 L12,12 Z" fill="#00aa00" opacity="0.8"/>
    </g>
  </defs>
  
  <!-- Background with gradient -->
  <rect width="800" height="800" fill="url(#bgGradient)"/>
  
  <!-- Subtle grid pattern -->
  <g opacity="0.05">
    <pattern id="grid" width="40" height="40" patternUnits="userSpaceOnUse">
      <path d="M 40 0 L 0 0 0 40" fill="none" stroke="#00ff00" stroke-width="0.5"/>
    </pattern>
    <rect width="100%" height="100%" fill="url(#grid)"/>
  </g>
  
  <!-- Main container with perspective -->
  <g transform="translate(100,100) scale(1.2)">
    
    <!-- Define text style with 3D effect -->
    <style>
      .number3d { 
        font-family: 'Courier New', monospace; 
        font-size: 14px; 
        font-weight: bold;
        fill: url(#textGradient);
        text-anchor: middle;
        dominant-baseline: middle;
        filter: url(#glow);
      }
      .smallnumber { 
        font-family: 'Courier New', monospace; 
        font-size: 10px; 
        font-weight: bold;
        fill: url(#textGradient);
        text-anchor: middle;
        dominant-baseline: middle;
      }
    </style>
    
    <!-- Position detection patterns with 3D enhancement -->
    
    <!-- Top-left corner with 3D effect -->
    <g transform="translate(40,40)" filter="url(#bevel)">
      <!-- Outer border frame -->
      <rect x="0" y="0" width="120" height="120" fill="none" stroke="url(#textGradient)" stroke-width="3" rx="5" ry="5"/>
      
      <!-- Numbers forming the pattern -->
      <g>
        <!-- Top row -->
        <use href="#cube" x="5" y="5"/>
        <text x="11" y="11" class="smallnumber">1</text>
        <use href="#cube" x="20" y="5"/>
        <text x="26" y="11" class="smallnumber">0</text>
        <use href="#cube" x="35" y="5"/>
        <text x="41" y="11" class="smallnumber">1</text>
        <use href="#cube" x="50" y="5"/>
        <text x="56" y="11" class="smallnumber">0</text>
        <use href="#cube" x="65" y="5"/>
        <text x="71" y="11" class="smallnumber">1</text>
        <use href="#cube" x="80" y="5"/>
        <text x="86" y="11" class="smallnumber">0</text>
        <use href="#cube" x="95" y="5"/>
        <text x="101" y="11" class="smallnumber">1</text>
        <use href="#cube" x="110" y="5"/>
        <text x="116" y="11" class="smallnumber">0</text>
        
        <!-- Left column -->
        <use href="#cube" x="5" y="20"/>
        <text x="11" y="26" class="smallnumber">0</text>
        <use href="#cube" x="5" y="35"/>
        <text x="11" y="41" class="smallnumber">1</text>
        <use href="#cube" x="5" y="50"/>
        <text x="11" y="56" class="smallnumber">0</text>
        <use href="#cube" x="5" y="65"/>
        <text x="11" y="71" class="smallnumber">1</text>
        <use href="#cube" x="5" y="80"/>
        <text x="11" y="86" class="smallnumber">0</text>
        <use href="#cube" x="5" y="95"/>
        <text x="11" y="101" class="smallnumber">1</text>
        <use href="#cube" x="5" y="110"/>
        <text x="11" y="116" class="smallnumber">0</text>
        
        <!-- Right column -->
        <use href="#cube" x="110" y="20"/>
        <text x="116" y="26" class="smallnumber">1</text>
        <use href="#cube" x="110" y="35"/>
        <text x="116" y="41" class="smallnumber">0</text>
        <use href="#cube" x="110" y="50"/>
        <text x="116" y="56" class="smallnumber">1</text>
        <use href="#cube" x="110" y="65"/>
        <text x="116" y="71" class="smallnumber">0</text>
        <use href="#cube" x="110" y="80"/>
        <text x="116" y="86" class="smallnumber">1</text>
        <use href="#cube" x="110" y="95"/>
        <text x="116" y="101" class="smallnumber">0</text>
        <use href="#cube" x="110" y="110"/>
        <text x="116" y="116" class="smallnumber">1</text>
        
        <!-- Bottom row -->
        <use href="#cube" x="20" y="110"/>
        <text x="26" y="116" class="smallnumber">1</text>
        <use href="#cube" x="35" y="110"/>
        <text x="41" y="116" class="smallnumber">0</text>
        <use href="#cube" x="50" y="110"/>
        <text x="56" y="116" class="smallnumber">1</text>
        <use href="#cube" x="65" y="110"/>
        <text x="71" y="116" class="smallnumber">0</text>
        <use href="#cube" x="80" y="110"/>
        <text x="86" y="116" class="smallnumber">1</text>
        <use href="#cube" x="95" y="110"/>
        <text x="101" y="116" class="smallnumber">0</text>
      </g>
      
      <!-- Inner pattern -->
      <g transform="translate(40,40)">
        <rect x="0" y="0" width="40" height="40" fill="none" stroke="url(#textGradient)" stroke-width="2" rx="3" ry="3"/>
        
        <!-- Center cube -->
        <use href="#cube" x="14" y="14" transform="scale(1.2)"/>
        <text x="20" y="20" class="number3d">1</text>
      </g>
    </g>
    
    <!-- Top-right corner pattern -->
    <g transform="translate(440,40)" filter="url(#bevel)">
      <rect x="0" y="0" width="120" height="120" fill="none" stroke="url(#textGradient)" stroke-width="3" rx="5" ry="5"/>
      
      <!-- Pattern content similar to top-left -->
      <g>
        <!-- Repeat pattern structure -->
        <use href="#cube" x="5" y="5"/>
        <text x="11" y="11" class="smallnumber">1</text>
        <use href="#cube" x="20" y="5"/>
        <text x="26" y="11" class="smallnumber">0</text>
        <use href="#cube" x="35" y="5"/>
        <text x="41" y="11" class="smallnumber">1</text>
        <use href="#cube" x="50" y="5"/>
        <text x="56" y="11" class="smallnumber">0</text>
        <use href="#cube" x="65" y="5"/>
        <text x="71" y="11" class="smallnumber">1</text>
        <use href="#cube" x="80" y="5"/>
        <text x="86" y="11" class="smallnumber">0</text>
        <use href="#cube" x="95" y="5"/>
        <text x="101" y="11" class="smallnumber">1</text>
        <use href="#cube" x="110" y="5"/>
        <text x="116" y="11" class="smallnumber">0</text>
      </g>
      
      <!-- Inner pattern -->
      <g transform="translate(40,40)">
        <rect x="0" y="0" width="40" height="40" fill="none" stroke="url(#textGradient)" stroke-width="2" rx="3" ry="3"/>
        <use href="#cube" x="14" y="14" transform="scale(1.2)"/>
        <text x="20" y="20" class="number3d">0</text>
      </g>
    </g>
    
    <!-- Bottom-left corner pattern -->
    <g transform="translate(40,440)" filter="url(#bevel)">
      <rect x="0" y="0" width="120" height="120" fill="none" stroke="url(#textGradient)" stroke-width="3" rx="5" ry="5"/>
      
      <!-- Pattern content -->
      <g>
        <use href="#cube" x="5" y="5"/>
        <text x="11" y="11" class="smallnumber">1</text>
        <use href="#cube" x="20" y="5"/>
        <text x="26" y="11" class="smallnumber">0</text>
        <use href="#cube" x="35" y="5"/>
        <text x="41" y="11" class="smallnumber">1</text>
        <use href="#cube" x="50" y="5"/>
        <text x="56" y="11" class="smallnumber">0</text>
        <use href="#cube" x="65" y="5"/>
        <text x="71" y="11" class="smallnumber">1</text>
        <use href="#cube" x="80" y="5"/>
        <text x="86" y="11" class="smallnumber">0</text>
        <use href="#cube" x="95" y="5"/>
        <text x="101" y="11" class="smallnumber">1</text>
        <use href="#cube" x="110" y="5"/>
        <text x="116" y="11" class="smallnumber">0</text>
      </g>
      
      <!-- Inner pattern -->
      <g transform="translate(40,40)">
        <rect x="0" y="0" width="40" height="40" fill="none" stroke="url(#textGradient)" stroke-width="2" rx="3" ry="3"/>
        <use href="#cube" x="14" y="14" transform="scale(1.2)"/>
        <text x="20" y="20" class="number3d">1</text>
      </g>
    </g>
    
    <!-- Timing patterns with 3D effects -->
    <!-- Horizontal timing pattern -->
    <g transform="translate(180,40)" filter="url(#glow)">
      <rect x="0" y="0" width="260" height="15" fill="#000" fill-opacity="0.3" rx="2" ry="2"/>
      <text x="10" y="10" class="smallnumber">1</text>
      <text x="30" y="10" class="smallnumber">0</text>
      <text x="50" y="10" class="smallnumber">1</text>
      <text x="70" y="10" class="smallnumber">0</text>
      <text x="90" y="10" class="smallnumber">1</text>
      <text x="110" y="10" class="smallnumber">0</text>
      <text x="130" y="10" class="smallnumber">1</text>
      <text x="150" y="10" class="smallnumber">0</text>
      <text x="170" y="10" class="smallnumber">1</text>
      <text x="190" y="10" class="smallnumber">0</text>
      <text x="210" y="10" class="smallnumber">1</text>
      <text x="230" y="10" class="smallnumber">0</text>
      <text x="250" y="10" class="smallnumber">1</text>
    </g>
    
    <!-- Vertical timing pattern -->
    <g transform="translate(40,180)" filter="url(#glow)">
      <rect x="0" y="0" width="15" height="260" fill="#000" fill-opacity="0.3" rx="2" ry="2"/>
      <g transform="rotate(90 7.5 130)">
        <text x="-120" y="7.5" class="smallnumber">1</text>
        <text x="-100" y="7.5" class="smallnumber">0</text>
        <text x="-80" y="7.5" class="smallnumber">1</text>
        <text x="-60" y="7.5" class="smallnumber">0</text>
        <text x="-40" y="7.5" class="smallnumber">1</text>
        <text x="-20" y="7.5" class="smallnumber">0</text>
        <text x="0" y="7.5" class="smallnumber">1</text>
        <text x="20" y="7.5" class="smallnumber">0</text>
        <text x="40" y="7.5" class="smallnumber">1</text>
        <text x="60" y="7.5" class="smallnumber">0</text>
        <text x="80" y="7.5" class="smallnumber">1</text>
        <text x="100" y="7.5" class="smallnumber">0</text>
        <text x="120" y="7.5" class="smallnumber">1</text>
      </g>
    </g>
    
    <!-- Data area with 3D numbers -->
    <g transform="translate(200,100)" filter="url(#depth3d)">
      <!-- Data pattern rows -->
      <g>
        <!-- Row 1 -->
        <text x="10" y="10" class="number3d">1</text>
        <text x="30" y="10" class="number3d">0</text>
        <text x="50" y="10" class="number3d">1</text>
        <text x="70" y="10" class="number3d">0</text>
        <text x="90" y="10" class="number3d">1</text>
        <text x="110" y="10" class="number3d">0</text>
        <text x="130" y="10" class="number3d">1</text>
        <text x="150" y="10" class="number3d">0</text>
        <text x="170" y="10" class="number3d">1</text>
        <text x="190" y="10" class="number3d">0</text>
        
        <!-- Row 2 (offset) -->
        <text x="20" y="30" class="number3d">0</text>
        <text x="40" y="30" class="number3d">1</text>
        <text x="60" y="30" class="number3d">0</text>
        <text x="80" y="30" class="number3d">1</text>
        <text x="100" y="30" class="number3d">0</text>
        <text x="120" y="30" class="number3d">1</text>
        <text x="140" y="30" class="number3d">0</text>
        <text x="160" y="30" class="number3d">1</text>
        <text x="180" y="30" class="number3d">0</text>
        <text x="200" y="30" class="number3d">1</text>
        
        <!-- Row 3 -->
        <text x="10" y="50" class="number3d">1</text>
        <text x="30" y="50" class="number3d">0</text>
        <text x="50" y="50" class="number3d">1</text>
        <text x="70" y="50" class="number3d">0</text>
        <text x="90" y="50" class="number3d">1</text>
        <text x="110" y="50" class="number3d">0</text>
        <text x="130" y="50" class="number3d">1</text>
        <text x="150" y="50" class="number3d">0</text>
        <text x="170" y="50" class="number3d">1</text>
        <text x="190" y="50" class="number3d">0</text>
        
        <!-- Row 4 (offset) -->
        <text x="20" y="70" class="number3d">0</text>
        <text x="40" y="70" class="number3d">1</text>
        <text x="60" y="70" class="number3d">0</text>
        <text x="80" y="70" class="number3d">1</text>
        <text x="100" y="70" class="number3d">0</text>
        <text x="120" y="70" class="number3d">1</text>
        <text x="140" y="70" class="number3d">0</text>
        <text x="160" y="70" class="number3d">1</text>
        <text x="180" y="70" class="number3d">0</text>
        <text x="200" y="70" class="number3d">1</text>
      </g>
    </g>
    
    <!-- More data patterns with depth -->
    <g transform="translate(80,200)" filter="url(#depth3d)">
      <!-- Create matrix of numbers with 3D effect -->
      <g opacity="0.9">
        <!-- Row 1 -->
        <text x="10" y="10" class="number3d">1</text>
        <text x="30" y="10" class="number3d">0</text>
        <text x="50" y="10" class="number3d">1</text>
        <text x="70" y="10" class="number3d">0</text>
        <text x="90" y="10" class="number3d">1</text>
        <text x="110" y="10" class="number3d">0</text>
        <text x="130" y="10" class="number3d">1</text>
        <text x="150" y="10" class="number3d">0</text>
        <text x="170" y="10" class="number3d">1</text>
        <text x="190" y="10" class="number3d">0</text>
        <text x="210" y="10" class="number3d">1</text>
        <text x="230" y="10" class="number3d">0</text>
        <text x="250" y="10" class="number3d">1</text>
        <text x="270" y="10" class="number3d">0</text>
        <text x="290" y="10" class="number3d">1</text>
        <text x="310" y="10" class="number3d">0</text>
        <text x="330" y="10" class="number3d">1</text>
        <text x="350" y="10" class="number3d">0</text>
        <text x="370" y="10" class="number3d">1</text>
        <text x="390" y="10" class="number3d">0</text>
        <text x="410" y="10" class="number3d">1</text>
        <text x="430" y="10" class="number3d">0</text>
        
        <!-- Row 2 (offset for 3D effect) -->
        <text x="20" y="30" class="number3d">0</text>
        <text x="40" y="30" class="number3d">1</text>
        <text x="60" y="30" class="number3d">0</text>
        <text x="80" y="30" class="number3d">1</text>
        <text x="100" y="30" class="number3d">0</text>
        <text x="120" y="30" class="number3d">1</text>
        <text x="140" y="30" class="number3d">0</text>
        <text x="160" y="30" class="number3d">1</text>
        <text x="180" y="30" class="number3d">0</text>
        <text x="200" y="30" class="number3d">1</text>
        <text x="220" y="30" class="number3d">0</text>
        <text x="240" y="30" class="number3d">1</text>
        <text x="260" y="30" class="number3d">0</text>
        <text x="280" y="30" class="number3d">1</text>
        <text x="300" y="30" class="number3d">0</text>
        <text x="320" y="30" class="number3d">1</text>
        <text x="340" y="30" class="number3d">0</text>
        <text x="360" y="30" class="number3d">1</text>
        <text x="380" y="30" class="number3d">0</text>
        <text x="400" y="30" class="number3d">1</text>
        <text x="420" y="30" class="number3d">0</text>
        <text x="440" y="30" class="number3d">1</text>
      </g>
    </g>
    
    <!-- Bottom patterns with 3D effect -->
    <g transform="translate(180,480)" filter="url(#depth3d)">
      <g opacity="0.85">
        <!-- Bottom row patterns -->
        <text x="10" y="10" class="number3d">1</text>
        <text x="30" y="10" class="number3d">0</text>
        <text x="50" y="10" class="number3d">1</text>
        <text x="70" y="10" class="number3d">0</text>
        <text x="90" y="10" class="number3d">1</text>
        <text x="110" y="10" class="number3d">0</text>
        <text x="130" y="10" class="number3d">1</text>
        <text x="150" y="10" class="number3d">0</text>
        <text x="170" y="10" class="number3d">1</text>
        <text x="190" y="10" class="number3d">0</text>
        <text x="210" y="10" class="number3d">1</text>
        
        <text x="20" y="30" class="number3d">0</text>
        <text x="40" y="30" class="number3d">1</text>
        <text x="60" y="30" class="number3d">0</text>
        <text x="80" y="30" class="number3d">1</text>
        <text x="100" y="30" class="number3d">0</text>
        <text x="120" y="30" class="number3d">1</text>
        <text x="140" y="30" class="number3d">0</text>
        <text x="160" y="30" class="number3d">1</text>
        <text x="180" y="30" class="number3d">0</text>
        <text x="200" y="30" class="number3d">1</text>
        <text x="220" y="30" class="number3d">0</text>
      </g>
    </g>
    
    <!-- Add floating particles for elegant effect -->
    <g opacity="0.3">
      <circle cx="100" cy="300" r="2" fill="url(#textGradient)" filter="url(#glow)">
        <animate attributeName="cy" values="300;280;300" dur="4s" repeatCount="indefinite"/>
      </circle>
      <circle cx="500" cy="200" r="1.5" fill="url(#textGradient)" filter="url(#glow)">
        <animate attributeName="cy" values="200;220;200" dur="3s" repeatCount="indefinite"/>
      </circle>
      <circle cx="300" cy="450" r="2" fill="url(#textGradient)" filter="url(#glow)">
        <animate attributeName="cy" values="450;430;450" dur="5s" repeatCount="indefinite"/>
      </circle>
    </g>
    
    <!-- Corner embellishments -->
    <g opacity="0.6">
      <path d="M 20,20 L 20,30 L 30,20 Z" fill="url(#textGradient)" filter="url(#glow)"/>
      <path d="M 570,20 L 570,30 L 560,20 Z" fill="url(#textGradient)" filter="url(#glow)"/>
      <path d="M 20,570 L 20,560 L 30,570 Z" fill="url(#textGradient)" filter="url(#glow)"/>
      <path d="M 570,570 L 570,560 L 560,570 Z" fill="url(#textGradient)" filter="url(#glow)"/>
    </g>
  </g>
  
  <!-- Add subtle scanning line animation -->
  <rect x="0" y="0" width="800" height="5" fill="url(#textGradient)" opacity="0.3" filter="url(#glow)">
    <animate attributeName="y" values="0;800;0" dur="8s" repeatCount="indefinite"/>
  </rect>
</svg>
